<svg id="icon-align-right" viewbox="0 0 448 512" xmlns="http://www.w3.org/2000/svg"><!-- align-right (solid): Font Awesome Free 6.4.0 CC BY 4.0--><path d="M448 64c0 17.7-14.3 32-32 32H192c-17.7 0-32-14.3-32-32s14.3-32 32-32H416c17.7 0 32 14.3 32 32zm0 256c0 17.7-14.3 32-32 32H192c-17.7 0-32-14.3-32-32s14.3-32 32-32H416c17.7 0 32 14.3 32 32zM0 192c0-17.7 14.3-32 32-32H416c17.7 0 32 14.3 32 32s-14.3 32-32 32H32c-17.7 0-32-14.3-32-32zM448 448c0 17.7-14.3 32-32 32H32c-17.7 0-32-14.3-32-32s14.3-32 32-32H416c17.7 0 32 14.3 32 32z"></path></svg>